<?xml version="1.0" encoding="utf-8"?>
<!-- Generator: Adobe Illustrator 24.3.0, SVG Export Plug-In . SVG Version: 6.00 Build 0)  -->
<svg version="1.1" id="katman_1" xmlns="http://www.w3.org/2000/svg" xmlns:xlink="http://www.w3.org/1999/xlink" x="0px" y="0px"
	 viewBox="0 0 2500 2499" style="enable-background:new 0 0 2500 2499;" xml:space="preserve">
<style type="text/css">
	.st0{fill:#4D4D4E;}
	.st1{fill:#F89820;}
	.st2{fill:url(#SVGID_1_);}
</style>
<path class="st0" d="M2167.1,2243.4H332.9c-42.3,0-77-34.7-77-77V332.6c0-42.3,34.7-77,77-77h1834.3c42.3,0,77,34.7,77,77v1834.3
	C2243.7,2209.1,2209.4,2243.4,2167.1,2243.4L2167.1,2243.4z"/>
<path class="st1" d="M714.2,855.9l1040.4-330.2c0,0,73.9-38.7,56.1,32.9l2.7,318.2c0,0,12.9,46.7-51.2,58.3l-422.7,132.2
	L714.2,855.9z"/>
<path class="st1" d="M714.2,855.9c0,0-40.9,9.8-28.9,79.7l-2.2,306.6c0,0-3.6,38.7,69.9,54.3l1031,332c0,0,34.7,13.8,30.7-28.9
	l0.4-341.8c0,0,9.8-35.2-54.3-58.3l-421.4-132.2L714.2,855.9z"/>
<linearGradient id="SVGID_1_" gradientUnits="userSpaceOnUse" x1="936.5278" y1="1477.5216" x2="1124.6497" y2="1542.6101" gradientTransform="matrix(5.5944 0 0 -5.5944 -4495.8188 10047.752)">
	<stop  offset="0.233" style="stop-color:#F89822"/>
	<stop  offset="1" style="stop-color:#C27818"/>
</linearGradient>
<path class="st2" d="M1168.6,1429.9l-438.8,133.9c0,0-53,1.8-46.7,101c6.2,99.2-0.4,299-0.4,299s4.4,36.9,55.2,15.6l1040.4-332
	c0,0,36.9-9.3,5.8-19.6C1752.8,1618.2,1168.6,1429.9,1168.6,1429.9z"/>
</svg>
